<?xml version="1.0" encoding="UTF-8"?>
<svg xmlns="http://www.w3.org/2000/svg" xmlns:xlink="http://www.w3.org/1999/xlink" width="40px" height="40px" viewBox="0 0 40 40" version="1.1">
<g id="surface1">
<path style=" stroke:none;fill-rule:nonzero;fill:rgb(45.882353%,72.549021%,32.941177%);fill-opacity:1;" d="M 20 18.167969 C 18.984375 18.167969 18.167969 18.984375 18.167969 20 C 18.167969 21.015625 18.984375 21.832031 20 21.832031 C 21.015625 21.832031 21.832031 21.015625 21.832031 20 C 21.832031 18.984375 21.015625 18.167969 20 18.167969 Z M 20 3.332031 C 10.800781 3.332031 3.332031 10.800781 3.332031 20 C 3.332031 29.199219 10.800781 36.667969 20 36.667969 C 29.199219 36.667969 36.667969 29.199219 36.667969 20 C 36.667969 10.800781 29.199219 3.332031 20 3.332031 Z M 23.648438 23.648438 L 10 30 L 16.351562 16.351562 L 30 10 Z M 23.648438 23.648438 "/>
</g>
</svg>
