<?xml version="1.0" encoding="UTF-8"?>
<svg xmlns="http://www.w3.org/2000/svg" xmlns:xlink="http://www.w3.org/1999/xlink" width="40px" height="40px" viewBox="0 0 40 40" version="1.1">
<g id="surface3">
<path style=" stroke:none;fill-rule:nonzero;fill:rgb(0%,39.607844%,67.058825%);fill-opacity:1;" d="M 40 20 C 40 8.953125 31.046875 0 20 0 C 8.953125 0 0 8.953125 0 20 C 0 31.046875 8.953125 40 20 40 C 31.046875 40 40 31.046875 40 20 Z M 40 20 "/>
<path style=" stroke:none;fill-rule:nonzero;fill:rgb(100%,100%,100%);fill-opacity:1;" d="M 20 26.160156 C 23 26.15625 25.429688 23.726562 25.433594 20.726562 L 25.433594 9.933594 C 25.433594 6.933594 23 4.5 20 4.5 C 17 4.5 14.566406 6.933594 14.566406 9.933594 L 14.566406 20.726562 C 14.570312 23.726562 17 26.15625 20 26.160156 Z M 15.753906 18.914062 L 18.160156 18.914062 C 18.464844 18.882812 18.695312 18.625 18.695312 18.316406 C 18.695312 18.007812 18.464844 17.753906 18.160156 17.71875 L 15.753906 17.71875 L 15.753906 15.671875 L 18.160156 15.671875 C 18.488281 15.671875 18.753906 15.40625 18.753906 15.078125 C 18.753906 14.753906 18.488281 14.488281 18.160156 14.488281 L 15.753906 14.488281 L 15.753906 12.441406 L 18.160156 12.441406 C 18.488281 12.441406 18.753906 12.175781 18.753906 11.847656 C 18.753906 11.519531 18.488281 11.253906 18.160156 11.253906 L 15.753906 11.253906 L 15.753906 9.921875 C 15.753906 7.574219 17.65625 5.671875 20 5.671875 C 22.34375 5.671875 24.246094 7.574219 24.246094 9.921875 L 24.246094 11.253906 L 21.765625 11.253906 C 21.4375 11.253906 21.171875 11.519531 21.171875 11.847656 C 21.171875 12.175781 21.4375 12.441406 21.765625 12.441406 L 24.246094 12.441406 L 24.246094 14.488281 L 21.765625 14.488281 C 21.4375 14.488281 21.171875 14.753906 21.171875 15.078125 C 21.171875 15.40625 21.4375 15.671875 21.765625 15.671875 L 24.246094 15.671875 L 24.246094 17.71875 L 21.765625 17.71875 C 21.460938 17.753906 21.230469 18.007812 21.230469 18.316406 C 21.230469 18.625 21.460938 18.882812 21.765625 18.914062 L 24.246094 18.914062 L 24.246094 20.726562 C 24.246094 23.070312 22.34375 24.972656 20 24.972656 C 17.65625 24.972656 15.753906 23.070312 15.753906 20.726562 Z M 15.753906 18.914062 "/>
<path style=" stroke:none;fill-rule:nonzero;fill:rgb(100%,100%,100%);fill-opacity:1;" d="M 20.738281 29.027344 C 25.085938 28.617188 28.414062 24.984375 28.441406 20.621094 C 28.441406 20.292969 28.175781 20.027344 27.847656 20.027344 C 27.519531 20.027344 27.253906 20.292969 27.253906 20.621094 C 27.253906 24.625 24.007812 27.875 20 27.875 C 15.992188 27.875 12.746094 24.625 12.746094 20.621094 C 12.746094 20.292969 12.480469 20.027344 12.152344 20.027344 C 11.824219 20.027344 11.558594 20.292969 11.558594 20.621094 C 11.585938 24.984375 14.914062 28.617188 19.261719 29.027344 L 19.40625 29.027344 L 19.40625 34.300781 L 15.828125 34.300781 C 15.5 34.300781 15.234375 34.566406 15.234375 34.894531 C 15.234375 35.222656 15.5 35.488281 15.828125 35.488281 L 24.171875 35.488281 C 24.5 35.488281 24.765625 35.222656 24.765625 34.894531 C 24.765625 34.566406 24.5 34.300781 24.171875 34.300781 L 20.59375 34.300781 L 20.59375 29.039062 Z M 20.738281 29.027344 "/>
</g>
</svg>
