<?xml version="1.0" encoding="UTF-8"?>
<svg xmlns="http://www.w3.org/2000/svg" xmlns:xlink="http://www.w3.org/1999/xlink" width="40px" height="40px" viewBox="0 0 40 40" version="1.1">
<g id="surface3">
<path style=" stroke:none;fill-rule:nonzero;fill:rgb(28.627452%,56.862748%,7.450981%);fill-opacity:1;" d="M 38.71875 16.914062 L 23.085938 1.28125 C 21.382812 -0.425781 18.617188 -0.425781 16.914062 1.28125 L 1.28125 16.914062 C 0.460938 17.730469 0 18.84375 0 20 C 0 21.15625 0.460938 22.269531 1.28125 23.085938 L 16.914062 38.71875 C 17.730469 39.539062 18.84375 40 20 40 C 21.15625 40 22.269531 39.539062 23.085938 38.71875 L 38.71875 23.085938 C 39.539062 22.269531 40 21.15625 40 20 C 40 18.84375 39.539062 17.730469 38.71875 16.914062 Z M 38.71875 16.914062 "/>
<path style=" stroke:none;fill-rule:nonzero;fill:rgb(100%,100%,100%);fill-opacity:1;" d="M 30.480469 17.738281 C 30.113281 17.738281 29.8125 18.039062 29.8125 18.40625 L 29.8125 24.199219 C 29.8125 25.777344 28.535156 27.054688 26.960938 27.054688 L 12.960938 27.054688 C 11.382812 27.054688 10.105469 25.777344 10.105469 24.199219 L 10.105469 18.285156 C 10.191406 18.011719 10.09375 17.714844 9.859375 17.546875 C 9.625 17.378906 9.3125 17.378906 9.082031 17.546875 C 8.847656 17.714844 8.75 18.011719 8.832031 18.285156 L 8.832031 24.171875 C 8.832031 26.453125 10.679688 28.300781 12.960938 28.300781 L 26.960938 28.300781 C 29.238281 28.300781 31.085938 26.453125 31.085938 24.171875 L 31.085938 18.378906 C 31.085938 18.011719 30.789062 17.714844 30.421875 17.714844 Z M 30.480469 17.738281 "/>
<path style=" stroke:none;fill-rule:nonzero;fill:rgb(100%,100%,100%);fill-opacity:1;" d="M 19.554688 23.238281 C 19.667969 23.363281 19.832031 23.433594 20 23.433594 C 20.167969 23.433594 20.332031 23.363281 20.445312 23.238281 L 24.492188 19.191406 C 24.613281 19.074219 24.683594 18.914062 24.683594 18.742188 C 24.683594 18.574219 24.613281 18.410156 24.492188 18.292969 C 24.238281 18.058594 23.847656 18.058594 23.59375 18.292969 L 20.667969 21.261719 L 20.667969 8.332031 C 20.582031 8.050781 20.324219 7.851562 20.027344 7.851562 C 19.730469 7.851562 19.46875 8.050781 19.386719 8.332031 L 19.386719 21.261719 L 16.398438 18.292969 C 16.144531 18.058594 15.753906 18.058594 15.5 18.292969 C 15.378906 18.410156 15.308594 18.574219 15.308594 18.742188 C 15.308594 18.914062 15.378906 19.074219 15.5 19.191406 Z M 19.554688 23.238281 "/>
</g>
</svg>
